<?xml version="1.0" standalone="no"?><!DOCTYPE svg PUBLIC "-//W3C//DTD SVG 1.1//EN" "http://www.w3.org/Graphics/SVG/1.1/DTD/svg11.dtd"><svg t="1658244265438" class="icon" viewBox="0 0 1024 1024" version="1.1" xmlns="http://www.w3.org/2000/svg" p-id="5525" xmlns:xlink="http://www.w3.org/1999/xlink" width="32" height="32"><defs><style type="text/css">@font-face { font-family: feedback-iconfont; src: url("//at.alicdn.com/t/font_1031158_u69w8yhxdu.woff2?t=1630033759944") format("woff2"), url("//at.alicdn.com/t/font_1031158_u69w8yhxdu.woff?t=1630033759944") format("woff"), url("//at.alicdn.com/t/font_1031158_u69w8yhxdu.ttf?t=1630033759944") format("truetype"); }
</style></defs><path d="M766.8 512.5c76.6-71.2 121.1-145.2 89.9-199.2-31.2-54-117.5-52.4-217.5-21.7-23.4-102-65.2-177.5-127.6-177.5-62.4 0-104.2 75.5-127.6 177.5-100-30.7-186.2-32.3-217.5 21.8-31.2 54.1 13.3 128 89.9 199.2-76.6 71.2-121.1 145.1-89.9 199.2 17.5 30.4 52.4 43.2 97.4 43.2 35 0 76.3-8.1 120.1-21.5 23.4 102 65.2 177.5 127.6 177.5 62.4 0 104.2-75.5 127.6-177.5C683 746.9 724.3 755 759.3 755c44.9 0 79.8-12.9 97.4-43.2 31.2-54.2-13.4-128.1-89.9-199.3z m-4.1-172.7c18.4 0 29.8 3.3 32.9 8.7 7.3 12.6-17.9 59-82.9 118.1-17.2-13.4-35.2-26.4-53.8-39.1-1.6-22.4-3.9-44.6-6.9-66.1 47.9-15.4 85.9-21.6 110.7-21.6zM551.6 581.7c-13.7 7.9-27 15.1-40 21.9-13-6.8-26.3-14-39.9-21.9-13.7-7.9-26.5-15.8-39-23.6-0.6-14.7-1-29.8-1-45.6s0.4-30.9 1-45.6c12.4-7.9 25.3-15.7 39-23.6 13.7-7.9 26.9-14.9 40-21.8 13.1 6.9 26.2 13.9 40 21.8 13.7 7.9 26.5 15.8 39 23.6 0.6 14.7 1 29.8 1 45.6s-0.4 30.9-1 45.6c-12.6 7.8-25.4 15.7-39.1 23.6z m-40-397.1c14.5 0 42.1 45 60.8 130.9-20.2 8.2-40.5 17.3-60.8 27.1-20.3-9.8-40.6-18.9-60.8-27.1 18.7-85.9 46.3-130.9 60.8-130.9zM227.7 348.5c3.1-5.4 14.4-8.7 32.9-8.7 24.9 0 62.8 6.2 110.8 21.5-3 21.6-5.3 43.7-6.9 66.2-18.6 12.6-36.6 25.7-53.9 39.1-65.1-59.1-90.2-105.5-82.9-118.1z m-0.1 327.9c-7.3-12.6 17.9-59 82.9-118.1 17.2 13.4 35.3 26.5 53.9 39.1 1.6 22.4 3.9 44.6 6.9 66.2-83.6 26.8-136.4 25.4-143.7 12.8z m284 164c-14.5 0-42.2-45-60.8-130.9 20.2-8.2 40.5-17.3 60.8-27.1 20.3 9.8 40.6 18.9 60.8 27.1-18.6 85.9-46.3 130.9-60.8 130.9z m284-164c-7.2 12.6-60 14-143.7-12.8 3-21.6 5.3-43.8 6.9-66.2 18.6-12.7 36.7-25.7 53.9-39.1 65 59.1 90.1 105.6 82.9 118.1z" p-id="5526" fill="#1296db"></path><path d="M511.6 477.2c-19.5 0-35.3 15.8-35.3 35.3 0 19.5 15.8 35.3 35.3 35.3 19.5 0 35.3-15.8 35.3-35.3 0-19.5-15.8-35.3-35.3-35.3z" p-id="5527" fill="#1296db"></path></svg>