<?xml version="1.0" standalone="no"?><!DOCTYPE svg PUBLIC "-//W3C//DTD SVG 1.1//EN" "http://www.w3.org/Graphics/SVG/1.1/DTD/svg11.dtd"><svg t="1658245732207" class="icon" viewBox="0 0 1024 1024" version="1.1" xmlns="http://www.w3.org/2000/svg" p-id="10088" width="23" height="23" xmlns:xlink="http://www.w3.org/1999/xlink"><defs><style type="text/css">@font-face { font-family: feedback-iconfont; src: url("//at.alicdn.com/t/font_1031158_u69w8yhxdu.woff2?t=1630033759944") format("woff2"), url("//at.alicdn.com/t/font_1031158_u69w8yhxdu.woff?t=1630033759944") format("woff"), url("//at.alicdn.com/t/font_1031158_u69w8yhxdu.ttf?t=1630033759944") format("truetype"); }
</style></defs><path d="M929.792 929.792H94.208V94.208h835.584zM135.168 135.168v753.664h753.664V135.168z" fill="#d4237a" p-id="10089"></path><path d="M716.3904 487.1168c-4.806656-0.014336-9.222144 0.106496-12.521472 0.41984-25.790464 2.24256-49.881088 13.50656-66.369536 31.033344-8.259584 8.781824-15.742976 21.372928-19.398656 32.643072-4.028416 12.42112-3.999744 12.183552-3.979264 31.6416 0.02048 24.860672 1.284096 31.019008 9.742336 47.552512 8.505344 16.625664 21.46304 30.205952 40.157184 42.0864 8.192 5.206016 29.17376 15.6672 46.307328 23.0912 37.296128 16.156672 49.094656 23.609344 54.56896 34.47808l2.260992 4.48512v9.40032c0 9.066496-0.036864 9.53344-1.880064 13.27104-4.206592 8.650752-14.137344 15.734784-26.853376 19.156992-4.808704 1.29024-7.012352 1.47456-17.758208 1.478656-10.518528 0-13.072384-0.217088-17.893376-1.417216-8.41728-2.12992-15.509504-5.074944-21.05344-8.747008-6.78912-4.49536-20.135936-17.9712-25.565184-25.810944-2.39616-3.46112-4.80256-6.2976-5.343232-6.2976-0.892928 0-46.913536 26.310656-54.945792 31.412224-2.707456 1.72032-3.393536 2.504704-3.393536 3.883008 0 2.859008 10.752 19.111936 19.175424 28.983296 17.160192 20.115456 51.572736 37.849088 82.055168 42.2912 12.050432 1.753088 32.065536 2.320384 46.04928 1.29024 9.162752-0.671744 18.423808-2.410496 28.37504-5.328896 36.00384-10.561536 60.5696-32.997376 69.67296-63.639552 3.713024-12.498944 5.214208-27.87328 3.987456-40.843264-2.514944-26.611712-10.694656-45.42464-26.841088-61.720576-14.993408-15.130624-35.577856-27.322368-76.204032-45.13792-35.223552-15.44192-44.417024-21.44256-49.494016-32.290816-4.38272-9.365504-3.547136-22.255616 1.96608-30.265344 6.4512-9.375744 19.61984-14.00832 34.306048-12.06272 13.656064 1.80224 22.48704 7.215104 31.13984 19.073024 4.493312 6.156288 7.612416 9.363456 9.107456 9.363456 1.47456 0 7.827456-3.919872 27.547648-17.012736 20.074496-13.324288 26.386432-17.846272 26.81856-19.21024 0.671744-2.111488-2.473984-7.05536-11.677696-18.345984-18.479104-22.665216-40.20224-34.697216-68.096-37.715968-6.848512-0.743424-15.95392-1.155072-23.965696-1.179648z m-221.9008 3.846144c-16.55808-0.01024-35.473408 0-56.489984 0.02048-108.992512 0.106496-134.289408 0.28672-134.971392 0.989184-0.663552 0.663552-0.835584 7.346176-0.835584 32.288768v31.451136l49.5616 0.180224 49.565696 0.178176 0.01024 140.294144c0.004096 77.162496 0.178176 140.947456 0.41984 141.746176l0.372736 1.458176h36.020224c32.249856 0 36.059136-0.07168 36.411392-1.019904 0.21504-0.5632 0.372736-64.34816 0.372736-141.746176v-140.726272l49.563648-0.178176 49.563648-0.180224v-31.830016c0-27.58656-0.106496-31.90784-0.968704-32.444416-0.454656-0.28672-28.932096-0.458752-78.608384-0.483328z" fill="#d4237a" p-id="10090"></path></svg>