<?xml version="1.0" standalone="no"?><!DOCTYPE svg PUBLIC "-//W3C//DTD SVG 1.1//EN" "http://www.w3.org/Graphics/SVG/1.1/DTD/svg11.dtd"><svg t="1658239588296" class="icon" viewBox="0 0 1024 1024" version="1.1" xmlns="http://www.w3.org/2000/svg" p-id="2373" width="32" height="32" xmlns:xlink="http://www.w3.org/1999/xlink"><defs><style type="text/css">@font-face { font-family: feedback-iconfont; src: url("//at.alicdn.com/t/font_1031158_u69w8yhxdu.woff2?t=1630033759944") format("woff2"), url("//at.alicdn.com/t/font_1031158_u69w8yhxdu.woff?t=1630033759944") format("woff"), url("//at.alicdn.com/t/font_1031158_u69w8yhxdu.ttf?t=1630033759944") format("truetype"); }
</style></defs><path d="M866.133333 85.333333c4.693333 0 8.533333 3.84 8.533334 8.533334v194.133333a32 32 0 0 1-28.928 31.850667L842.666667 320h-194.133334a8.533333 8.533333 0 0 1-8.533333-8.533333v-46.933334c0-4.693333 3.84-8.533333 8.533333-8.533333h120.341334A361.536 361.536 0 0 0 512 149.333333C311.701333 149.333333 149.333333 311.701333 149.333333 512s162.368 362.666667 362.666667 362.666667c185.813333 0 339.008-139.776 360.170667-319.914667 0.384-3.328 0.810667-7.829333 1.28-13.546667a8.533333 8.533333 0 0 1 8.512-7.850666h47.061333a8.533333 8.533333 0 0 1 8.533333 9.109333c-0.426667 5.696-0.789333 10.218667-1.130666 13.589333C914.346667 770.986667 732.778667 938.666667 512 938.666667 276.352 938.666667 85.333333 747.648 85.333333 512S276.352 85.333333 512 85.333333c116.288 0 221.717333 46.506667 298.666667 121.984V93.866667c0-4.693333 3.84-8.533333 8.533333-8.533334h46.933333z" fill="#ffffff" p-id="2374"></path></svg>